<svg t="1715050719849" class="icon" viewBox="0 0 1024 1024" version="1.1" xmlns="http://www.w3.org/2000/svg" p-id="8620" width="64" height="64"><path d="M260.52832 1023.999488a44.263367 44.263367 0 0 1-34.336092-15.965515 42.01182 42.01182 0 0 1 6.70347-60.280054l457.985131-357.279574a94.616146 94.616146 0 0 0 40.32316-73.686993 95.43489 95.43489 0 0 0-40.937218-74.352223L220.768047 76.098195A42.01182 42.01182 0 0 1 214.064577 15.920484a44.979769 44.979769 0 0 1 61.917543-6.498783l469.601067 366.336933a178.486272 178.486272 0 0 1 73.686993 140.926375 177.514013 177.514013 0 0 1-73.175278 140.414659l-457.985131 357.279574A44.775083 44.775083 0 0 1 260.52832 1023.999488z" fill="#cccccc" p-id="8621"></path></svg>